<svg xmlns="http://www.w3.org/2000/svg" width="24" height="24" viewBox="0 0 24 24">
    <path fill="var(--fill, var(--default-fill))" fill-rule="evenodd" d="M12.8191776,24 L1.32461576,24 C0.592836328,24 0,23.4067958 0,22.6753014 L0,1.32460548 C0,0.592924852 0.592929454,0 1.32461576,0 L22.6754774,0 C23.4069774,0 24,0.592924852 24,1.32460548 L24,22.6753014 C24,23.4068889 23.4068843,24 22.6754774,24 L16.5596526,24 L16.5596526,14.7058773 L19.6792606,14.7058773 L20.1463776,11.0837928 L16.5596526,11.0837928 L16.5596526,8.7713207 C16.5596526,7.72264365 16.8508558,7.00800484 18.3546448,7.00800484 L20.2726557,7.00716672 L20.2726557,3.76754527 C19.940943,3.72340417 18.8023918,3.62478513 17.477776,3.62478513 C14.7124171,3.62478513 12.8191776,5.31276313 12.8191776,8.41260443 L12.8191776,11.0837928 L9.6915609,11.0837928 L9.6915609,14.7058773 L12.8191776,14.7058773 L12.8191776,24 L12.8191776,24 Z"/>
</svg>
