<svg xmlns="http://www.w3.org/2000/svg" width="19" height="19" viewBox="0 0 20 20">
  <path fill-rule="evenodd" d="M13.46184,12.0477836 L18.9549999,17.5409435 L17.5409435,18.9549999 L12.0477836,13.46184 C10.786125,14.4257608 9.20951143,14.9983329 7.49916646,14.9983329 C3.35749119,14.9983329 0,11.6408417 0,7.49916646 C0,3.35749119 3.35749119,0 7.49916646,0 C11.6408417,0 14.9983329,3.35749119 14.9983329,7.49916646 C14.9983329,9.20951143 14.4257608,10.786125 13.46184,12.0477836 Z M7.49916646,13.4984996 C10.8125067,13.4984996 13.4984996,10.8125067 13.4984996,7.49916646 C13.4984996,4.18582624 10.8125067,1.49983329 7.49916646,1.49983329 C4.18582624,1.49983329 1.49983329,4.18582624 1.49983329,7.49916646 C1.49983329,10.8125067 4.18582624,13.4984996 7.49916646,13.4984996 Z"/>
</svg>
