<svg xmlns="http://www.w3.org/2000/svg" xmlns:xlink="http://www.w3.org/1999/xlink" width="200" height="200"><defs><linearGradient id="a" x1="50%" x2="50%" y1="98.553%" y2="0%"><stop offset="0%" stop-color="#E3E3E9"/><stop offset="100%" stop-color="#E8E8ED"/></linearGradient><linearGradient id="d" x1="50%" x2="50%" y1="98.01%" y2="0%"><stop offset="0%" stop-color="#F0F0F3"/><stop offset="100%" stop-color="#FFF"/></linearGradient><path id="c" d="M3.852 190.44c7.704-7.648 25.307-15.972 33.214-18.809 7.907-2.837 30.905-12.66 38.592-15.407 7.687-2.749 5.932-11.487 4.575-13.574-1.357-2.087-9.731-9.684-13.827-16.773-4.096-7.088-10.846-19.141-12.236-32.15-1.39-13.01-.437-18.914 1.328-29.68 1.764-10.766 11.604-29.319 19.025-34.403 7.42-5.083 15.55-3.357 18.726-5.528 3.176-2.171 1.451-6.056 8.257-4.908 6.806 1.147 30.231 13.742 32.109 16 1.877 2.258 5.55 6.354 8.185 10.725 1.053 1.749 5.747 9.876 7.512 18.114 2.647 12.351.524 26.39 0 32.77-.874 10.636-9.31 26.508-11.901 30.737-3.722 6.078-11.456 14.181-13.273 15.857-1.818 1.675-1.689 12.272 2.935 13.48 4.624 1.21 36.112 15.955 45.5 19.938 9.388 3.982 20.933 11.113 26.866 16.867 3.955 3.837 5.35 7.227 4.186 10.17H3.852c-5.136-3.85-5.136-8.326 0-13.425z"/><filter id="b" width="102.9%" height="103.2%" x="-1.5%" y="-1.6%" filterUnits="objectBoundingBox"><feOffset in="SourceAlpha" result="shadowOffsetOuter1"/><feGaussianBlur in="shadowOffsetOuter1" result="shadowBlurOuter1" stdDeviation="1"/><feColorMatrix in="shadowBlurOuter1" values="0 0 0 0 0 0 0 0 0 0 0 0 0 0 0 0 0 0 0.1 0"/></filter></defs><g fill="none" fill-rule="evenodd"><path fill="url(#a)" d="M0 0h200v200H0z"/><use fill="#000" filter="url(#b)" xlink:href="#c"/><use fill="url(#d)" xlink:href="#c"/></g></svg>