<svg xmlns="http://www.w3.org/2000/svg" width="161" height="15" viewBox="0 0 161 15">
  <defs>
    <linearGradient id="logo-a" x1="-20.132%" x2="134.653%" y1="74.818%" y2="74.818%">
      <stop offset="0%" stop-color="#4CFDE9"/>
      <stop offset="49.422%" stop-color="#FBC954"/>
      <stop offset="100%" stop-color="#4435F7"/>
    </linearGradient>
  </defs>
  <path fill="url(#logo-a)" fill-rule="evenodd" d="M90.993,231.469853 L93.990395,231.469853 L93.990395,236.542368 L99.8122584,236.542368 L99.8122584,231.469853 L102.809653,231.469853 L102.809653,245.073415 L99.8122584,245.073415 L99.8122584,239.19391 L93.990395,239.19391 L93.990395,245.073415 L90.993,245.073415 L90.993,231.469853 Z M106.32435,238.271634 C106.32435,237.182831 106.506882,236.196519 106.871951,235.312667 C107.237021,234.428816 107.746188,233.676272 108.39947,233.055014 C109.052752,232.433756 109.827711,231.956611 110.724373,231.623566 C111.621034,231.29052 112.600941,231.124 113.664125,231.124 C114.727309,231.124 115.707217,231.29052 116.603878,231.623566 C117.500539,231.956611 118.275499,232.433756 118.928781,233.055014 C119.582062,233.676272 120.09123,234.428816 120.456299,235.312667 C120.821368,236.196519 121.0039,237.182831 121.0039,238.271634 C121.0039,239.360437 120.821368,240.346749 120.456299,241.230601 C120.09123,242.114453 119.582062,242.866996 118.928781,243.488254 C118.275499,244.109512 117.500539,244.586657 116.603878,244.919703 C115.707217,245.252748 114.727309,245.419269 113.664125,245.419269 C112.600941,245.419269 111.621034,245.252748 110.724373,244.919703 C109.827711,244.586657 109.052752,244.109512 108.39947,243.488254 C107.746188,242.866996 107.237021,242.114453 106.871951,241.230601 C106.506882,240.346749 106.32435,239.360437 106.32435,238.271634 Z M109.43703,238.271634 C109.43703,238.912106 109.536301,239.49813 109.734848,240.029722 C109.933394,240.561314 110.2184,241.022447 110.589874,241.413135 C110.961348,241.803823 111.406469,242.108043 111.925252,242.325803 C112.444034,242.543564 113.023653,242.652442 113.664125,242.652442 C114.304598,242.652442 114.884216,242.543564 115.402999,242.325803 C115.921781,242.108043 116.366903,241.803823 116.738377,241.413135 C117.109851,241.022447 117.394856,240.561314 117.593403,240.029722 C117.791949,239.49813 117.891221,238.912106 117.891221,238.271634 C117.891221,237.643971 117.791949,237.061151 117.593403,236.523154 C117.394856,235.985157 117.109851,235.520822 116.738377,235.130134 C116.366903,234.739446 115.921781,234.435226 115.402999,234.217465 C114.884216,233.999705 114.304598,233.890826 113.664125,233.890826 C113.023653,233.890826 112.444034,233.999705 111.925252,234.217465 C111.406469,234.435226 110.961348,234.739446 110.589874,235.130134 C110.2184,235.520822 109.933394,235.985157 109.734848,236.523154 C109.536301,237.061151 109.43703,237.643971 109.43703,238.271634 Z M124.633882,231.469853 L127.631277,231.469853 L127.631277,242.306589 L133.184143,242.306589 L133.184143,245.073415 L124.633882,245.073415 L124.633882,231.469853 Z M136.429843,231.469853 L139.427238,231.469853 L139.427238,242.306589 L144.980104,242.306589 L144.980104,245.073415 L136.429843,245.073415 L136.429843,231.469853 Z M147.380385,238.271634 C147.380385,237.182831 147.562917,236.196519 147.927986,235.312667 C148.293055,234.428816 148.802223,233.676272 149.455505,233.055014 C150.108787,232.433756 150.883746,231.956611 151.780407,231.623566 C152.677069,231.29052 153.656976,231.124 154.72016,231.124 C155.783344,231.124 156.763252,231.29052 157.659913,231.623566 C158.556574,231.956611 159.331534,232.433756 159.984816,233.055014 C160.638097,233.676272 161.147265,234.428816 161.512334,235.312667 C161.877403,236.196519 162.059935,237.182831 162.059935,238.271634 C162.059935,239.360437 161.877403,240.346749 161.512334,241.230601 C161.147265,242.114453 160.638097,242.866996 159.984816,243.488254 C159.331534,244.109512 158.556574,244.586657 157.659913,244.919703 C156.763252,245.252748 155.783344,245.419269 154.72016,245.419269 C153.656976,245.419269 152.677069,245.252748 151.780407,244.919703 C150.883746,244.586657 150.108787,244.109512 149.455505,243.488254 C148.802223,242.866996 148.293055,242.114453 147.927986,241.230601 C147.562917,240.346749 147.380385,239.360437 147.380385,238.271634 Z M150.493065,238.271634 C150.493065,238.912106 150.592336,239.49813 150.790883,240.029722 C150.989429,240.561314 151.274435,241.022447 151.645909,241.413135 C152.017383,241.803823 152.462504,242.108043 152.981287,242.325803 C153.500069,242.543564 154.079688,242.652442 154.72016,242.652442 C155.360632,242.652442 155.940251,242.543564 156.459034,242.325803 C156.977816,242.108043 157.422938,241.803823 157.794411,241.413135 C158.165885,241.022447 158.450891,240.561314 158.649438,240.029722 C158.847984,239.49813 158.947256,238.912106 158.947256,238.271634 C158.947256,237.643971 158.847984,237.061151 158.649438,236.523154 C158.450891,235.985157 158.165885,235.520822 157.794411,235.130134 C157.422938,234.739446 156.977816,234.435226 156.459034,234.217465 C155.940251,233.999705 155.360632,233.890826 154.72016,233.890826 C154.079688,233.890826 153.500069,233.999705 152.981287,234.217465 C152.462504,234.435226 152.017383,234.739446 151.645909,235.130134 C151.274435,235.520822 150.989429,235.985157 150.790883,236.523154 C150.592336,237.061151 150.493065,237.643971 150.493065,238.271634 Z M164.152791,231.469853 L167.419183,231.469853 L169.590373,240.193041 L169.628801,240.193041 L172.472483,231.469853 L175.258524,231.469853 L178.082992,240.42361 L178.12142,240.42361 L180.407895,231.469853 L183.443718,231.469853 L179.466405,245.073415 L176.795649,245.073415 L173.798254,235.658521 L173.759826,235.658521 L170.762431,245.073415 L168.187746,245.073415 L164.152791,231.469853 Z M184.921723,231.469853 L188.341828,231.469853 L191.70429,240.385182 L191.742718,240.385182 L195.162823,231.469853 L198.371573,231.469853 L192.761064,245.073415 L190.359305,245.073415 L184.921723,231.469853 Z M201.386704,231.469853 L210.628672,231.469853 L210.628672,234.236679 L204.384099,234.236679 L204.384099,236.772937 L210.282818,236.772937 L210.282818,239.539763 L204.384099,239.539763 L204.384099,242.306589 L210.974525,242.306589 L210.974525,245.073415 L201.386704,245.073415 L201.386704,231.469853 Z M214.854289,231.469853 L220.118945,231.469853 C220.810655,231.469853 221.467129,231.537102 222.088387,231.671601 C222.709645,231.8061 223.254038,232.030262 223.721583,232.344093 C224.189128,232.657925 224.560596,233.08063 224.835999,233.612222 C225.111402,234.143814 225.249101,234.806693 225.249101,235.600878 C225.249101,236.561587 224.999321,237.378177 224.499753,238.050672 C224.000184,238.723168 223.270057,239.149076 222.309349,239.328408 L225.767881,245.073415 L222.17485,245.073415 L219.331168,239.635833 L217.851684,239.635833 L217.851684,245.073415 L214.854289,245.073415 L214.854289,231.469853 Z M217.851684,237.099576 L219.619379,237.099576 C219.888377,237.099576 220.173383,237.089969 220.474405,237.070755 C220.775427,237.051541 221.047623,236.993899 221.291003,236.897828 C221.534382,236.801757 221.736128,236.651249 221.896246,236.446298 C222.056364,236.241346 222.136422,235.953138 222.136422,235.581664 C222.136422,235.235809 222.065971,234.96041 221.925067,234.755459 C221.784163,234.550508 221.604834,234.393595 221.387073,234.284715 C221.169313,234.175834 220.919532,234.102181 220.637724,234.063753 C220.355917,234.025324 220.080518,234.006111 219.811519,234.006111 L217.851684,234.006111 L217.851684,237.099576 Z M235.507937,234.793887 C235.264558,234.486461 234.934719,234.259097 234.518412,234.111788 C234.102106,233.964479 233.708221,233.890826 233.336747,233.890826 C233.118987,233.890826 232.894825,233.916445 232.664255,233.967682 C232.433685,234.01892 232.215927,234.098978 232.010976,234.207858 C231.806025,234.316739 231.639505,234.460843 231.51141,234.640175 C231.383316,234.819507 231.31927,235.037264 231.31927,235.293453 C231.31927,235.703356 231.472981,236.017182 231.780407,236.234943 C232.087834,236.452703 232.475314,236.638437 232.942859,236.792151 C233.410403,236.945864 233.913167,237.099575 234.451163,237.253289 C234.98916,237.407002 235.491923,237.624759 235.959468,237.906567 C236.427012,238.188375 236.814492,238.566248 237.121919,239.040197 C237.429346,239.514147 237.583057,240.148205 237.583057,240.94239 C237.583057,241.698147 237.442155,242.357824 237.160347,242.921439 C236.878539,243.485055 236.497464,243.952593 236.01711,244.324067 C235.536756,244.69554 234.979553,244.970939 234.345486,245.150272 C233.711418,245.329604 233.042135,245.419269 232.337615,245.419269 C231.453764,245.419269 230.633972,245.284771 229.878214,245.015773 C229.122457,244.746775 228.417948,244.31126 227.764667,243.709216 L229.897428,241.3651 C230.204855,241.775002 230.592335,242.092031 231.05988,242.316196 C231.527424,242.540361 232.010974,242.652442 232.510542,242.652442 C232.753922,242.652442 233.0005,242.623622 233.250284,242.565979 C233.500068,242.508337 233.72423,242.421874 233.922776,242.306589 C234.121323,242.191304 234.281438,242.043998 234.403128,241.864665 C234.524818,241.685333 234.585662,241.473981 234.585662,241.230601 C234.585662,240.820699 234.428748,240.497265 234.114917,240.260291 C233.801086,240.023316 233.407201,239.82157 232.933252,239.655047 C232.459302,239.488525 231.946932,239.322004 231.396126,239.155482 C230.84532,238.988959 230.33295,238.764797 229.859,238.482989 C229.385051,238.201181 228.991166,237.829713 228.677335,237.368573 C228.363504,236.907433 228.20659,236.298993 228.20659,235.543236 C228.20659,234.813098 228.350694,234.172635 228.638907,233.621829 C228.927119,233.071023 229.311397,232.60989 229.791751,232.238416 C230.272105,231.866942 230.826105,231.588341 231.453768,231.402604 C232.081431,231.216867 232.728298,231.124 233.394389,231.124 C234.162956,231.124 234.905893,231.232879 235.623222,231.450639 C236.34055,231.6684 236.987418,232.033463 237.563843,232.545841 L235.507937,234.793887 Z M241.405179,231.469853 L250.647147,231.469853 L250.647147,234.236679 L244.402574,234.236679 L244.402574,236.772937 L250.301293,236.772937 L250.301293,239.539763 L244.402574,239.539763 L244.402574,242.306589 L250.993,242.306589 L250.993,245.073415 L241.405179,245.073415 L241.405179,231.469853 Z" transform="translate(-90 -231)"/>
</svg>
