<svg xmlns="http://www.w3.org/2000/svg" xmlns:xlink="http://www.w3.org/1999/xlink" width="141" height="125" viewBox="0 0 141 125">
  <defs>
    <path id="a" d="M213.07 150.395l58.815 100.826c3.112 5.337 1.31 12.185-4.025 15.297-1.71.998-3.655 1.523-5.635 1.523h-117.63c-6.177 0-11.185-5.007-11.185-11.183 0-1.98.526-3.925 1.524-5.636l58.815-100.825c3.11-5.335 9.96-7.137 15.295-4.025 1.666.972 3.053 2.36 4.025 4.025zm-.604 40.19c0-2.244-.845-4.16-2.534-5.746-1.69-1.588-3.684-2.382-5.985-2.382-2.33 0-4.325.794-5.985 2.38-1.66 1.588-2.49 3.503-2.49 5.746 0 1.106.233 2.76.7 4.958.465 2.2.974 4.45 1.528 6.75.61 2.504 1.31 5.606 2.097 9.305.786 3.7 1.616 8.33 2.49 13.892h3.364c.874-5.505 1.704-10.13 2.49-13.87.787-3.744 1.486-6.867 2.098-9.372.64-2.65 1.172-4.958 1.594-6.924.423-1.966.634-3.546.634-4.74zm-.088 48.273c0-2.214-.837-4.13-2.512-5.745-1.674-1.617-3.633-2.425-5.876-2.425-2.27 0-4.244.808-5.92 2.425-1.674 1.616-2.51 3.53-2.51 5.745 0 2.213.836 4.113 2.51 5.7 1.676 1.588 3.65 2.382 5.92 2.382 2.243 0 4.202-.794 5.876-2.38 1.675-1.59 2.512-3.49 2.512-5.702z"/>
  </defs>
  <use fill="#4B31F6" opacity=".1" xlink:href="#a" fill-rule="evenodd" transform="translate(-133 -144)"/>
</svg>
